<svg xmlns="http://www.w3.org/2000/svg" width="30.344" height="22.726" viewBox="0 0 30.344 22.726"><defs><style>.a{fill:#262626;}</style></defs><g transform="translate(0 -64.267)"><path class="a" d="M16.528,75.474a2.99,2.99,0,0,0,2.975,0h0l13.5-9a3.274,3.274,0,0,0-3.09-2.2H6.113a3.275,3.275,0,0,0-3.09,2.2l13.5,9Z" transform="translate(-2.844)"/><path class="a" d="M17.646,143.959h0a4.758,4.758,0,0,1-4.947,0h0L0,135.494V150.73A3.273,3.273,0,0,0,3.269,154h23.8a3.273,3.273,0,0,0,3.269-3.269V135.494Z" transform="translate(0 -67.006)"/></g></svg>