<svg id="Grupo_2350" data-name="Grupo 2350" xmlns="http://www.w3.org/2000/svg" width="45.981" height="45.981" viewBox="0 0 45.981 45.981">
  <circle id="Elipse_33" data-name="Elipse 33" cx="22.99" cy="22.99" r="22.99" fill="#007ab5"/>
  <path id="Caminho_3673" data-name="Caminho 3673" d="M168.172,29.531h4.667V44.52h-4.667Zm2.334-7.447a2.7,2.7,0,1,1-2.7,2.7,2.7,2.7,0,0,1,2.7-2.7" transform="translate(-155.013 -11.352)" fill="#fff"/>
  <path id="Caminho_3674" data-name="Caminho 3674" d="M172.082,26.259h4.469v2.052h.061a4.9,4.9,0,0,1,4.412-2.422c4.717,0,5.587,3.1,5.587,7.138v8.221h-4.657V33.961c0-1.739-.033-3.975-2.422-3.975-2.425,0-2.794,1.893-2.794,3.848v7.414h-4.657Z" transform="translate(-151.333 -8.08)" fill="#fff"/>
</svg>
