<svg id="Grupo_2347" data-name="Grupo 2347" xmlns="http://www.w3.org/2000/svg" width="45.981" height="45.981" viewBox="0 0 45.981 45.981">
  <circle id="Elipse_30" data-name="Elipse 30" cx="22.99" cy="22.99" r="22.99" fill="#1ba5d4"/>
  <path id="Caminho_3668" data-name="Caminho 3668" d="M62.062,39.739a5.422,5.422,0,0,1-5.029-3.752,5.41,5.41,0,0,0,2.317-.071.567.567,0,0,0,.076-.035,5.391,5.391,0,0,1-3.51-2.481,5.251,5.251,0,0,1-.792-2.874,5.328,5.328,0,0,0,2.4.655A5.433,5.433,0,0,1,55.305,27.9a5.357,5.357,0,0,1,.58-3.915,15.461,15.461,0,0,0,11.148,5.649c-.032-.214-.065-.4-.087-.591a5.255,5.255,0,0,1,.79-3.534A5.2,5.2,0,0,1,71.4,23.067a5.266,5.266,0,0,1,4.732,1.507.274.274,0,0,0,.288.086,10.85,10.85,0,0,0,3.145-1.209c.022-.013.047-.026.071-.037l.037,0a5.526,5.526,0,0,1-2.316,2.941,10.352,10.352,0,0,0,3.009-.809l.022.024c-.206.272-.407.547-.621.811A10.569,10.569,0,0,1,77.8,28.245a.177.177,0,0,0-.087.169,14.807,14.807,0,0,1-.1,2.4,15.8,15.8,0,0,1-1.393,4.812A15.48,15.48,0,0,1,73.3,39.888a14.432,14.432,0,0,1-7.427,4.14,16.08,16.08,0,0,1-3.011.357,15.25,15.25,0,0,1-8.651-2.321c-.033-.019-.067-.043-.126-.082a10.933,10.933,0,0,0,5.407-.746A10.787,10.787,0,0,0,62.062,39.739Z" transform="translate(-43.264 -9.938)" fill="#fff" fill-rule="evenodd"/>
</svg>
